<svg xmlns="http://www.w3.org/2000/svg" viewBox="0 0 800 600"><rect width="800" height="600" rx="60" fill="#edf2ec"/><ellipse cx="410" cy="490" rx="260" ry="50" fill="#183a2e" opacity=".15"/><g transform="translate(100 80)"><rect x="80" y="70" width="480" height="350" rx="175" fill="#a8723e" stroke="#56371f" stroke-width="18"/><g stroke="#56371f" stroke-width="14" fill="none"><ellipse cx="145" cy="245" rx="80" ry="175"/><ellipse cx="245" cy="245" rx="80" ry="175"/><ellipse cx="345" cy="245" rx="80" ry="175"/><ellipse cx="445" cy="245" rx="80" ry="175"/><ellipse cx="545" cy="245" rx="80" ry="175"/></g><rect x="95" y="110" width="165" height="275" rx="75" fill="#3a2519"/><rect x="125" y="145" width="105" height="205" rx="46" fill="#e2aa63"/><path d="M300 65V0h65v65" fill="#5a3a24"/><path d="M333-10c-40-50 30-55-10-110 65 42-5 72 28 105" fill="none" stroke="#b9d9c7" stroke-width="15" stroke-linecap="round"/><rect x="35" y="410" width="585" height="34" rx="12" fill="#724a2a"/></g></svg>
