<svg xmlns="http://www.w3.org/2000/svg" viewBox="0 0 1600 1000" role="img" aria-labelledby="t d">
<title id="t">청남대 웰니스타운 숲과 편백 배럴</title><desc id="d">잔잔한 산과 숲속에 놓인 편백 배럴 찜질 시설 일러스트</desc>
<defs>
 <linearGradient id="sky" x1="0" y1="0" x2="0" y2="1"><stop stop-color="#e9f3ec"/><stop offset="1" stop-color="#f7efe1"/></linearGradient>
 <linearGradient id="wood" x1="0" x2="1"><stop stop-color="#8f5f35"/><stop offset=".5" stop-color="#c08b50"/><stop offset="1" stop-color="#6f4527"/></linearGradient>
 <linearGradient id="forest" x1="0" y1="0" x2="0" y2="1"><stop stop-color="#426a52"/><stop offset="1" stop-color="#193e31"/></linearGradient>
 <filter id="shadow"><feDropShadow dx="0" dy="20" stdDeviation="25" flood-opacity=".22"/></filter>
</defs>
<rect width="1600" height="1000" fill="url(#sky)"/>
<circle cx="1280" cy="180" r="88" fill="#e7c97f" opacity=".9"/>
<path d="M0 420L240 230l180 160 200-250 250 255 240-190 300 240 190-180v735H0z" fill="#a8b9a8" opacity=".65"/>
<path d="M0 520L260 340l180 170 260-250 250 260 210-210 250 220 190-160v630H0z" fill="#6e8b70" opacity=".75"/>
<path d="M0 665Q250 560 490 630T980 600t620 55v345H0z" fill="url(#forest)"/>
<g opacity=".95" fill="#244c39">
 <path d="M150 670l55-160 55 160h-35l45 120H140l45-120z"/>
 <path d="M330 690l65-190 65 190h-38l50 130H318l50-130z"/>
 <path d="M1260 710l70-215 70 215h-42l54 145h-164l54-145z"/>
 <path d="M1435 690l55-170 55 170h-34l44 120h-130l44-120z"/>
</g>
<path d="M600 1000c80-220 170-300 330-360 130-48 245-70 410-47-160 50-270 120-375 230-66 69-105 124-135 177z" fill="#d4c49c" opacity=".9"/>
<g filter="url(#shadow)" transform="translate(720 380)">
 <ellipse cx="280" cy="420" rx="315" ry="85" fill="#143429" opacity=".38"/>
 <rect x="60" y="120" width="470" height="360" rx="180" fill="url(#wood)" stroke="#50321f" stroke-width="16"/>
 <g stroke="#4f311f" stroke-width="12" fill="none">
  <ellipse cx="105" cy="300" rx="72" ry="180"/>
  <ellipse cx="205" cy="300" rx="72" ry="180"/>
  <ellipse cx="305" cy="300" rx="72" ry="180"/>
  <ellipse cx="405" cy="300" rx="72" ry="180"/>
  <ellipse cx="505" cy="300" rx="72" ry="180"/>
 </g>
 <rect x="80" y="158" width="150" height="285" rx="72" fill="#3b2418" stroke="#2d1a12" stroke-width="10"/>
 <rect x="108" y="188" width="95" height="225" rx="42" fill="#d9a15d" opacity=".8"/>
 <path d="M262 92v-80h62v90" fill="#513421" stroke="#2d1a12" stroke-width="9"/>
 <path d="M272 4h42" stroke="#2d1a12" stroke-width="14" stroke-linecap="round"/>
 <path d="M292-20c-35-45 20-45-8-86 58 38-5 59 28 97" fill="none" stroke="#fff" stroke-width="16" opacity=".75" stroke-linecap="round"/>
 <rect x="25" y="455" width="555" height="34" rx="12" fill="#8d5e36"/>
</g>
<g fill="#f7f0df" opacity=".15">
 <circle cx="200" cy="140" r="8"/><circle cx="250" cy="190" r="5"/><circle cx="340" cy="120" r="6"/><circle cx="470" cy="200" r="7"/>
</g>
</svg>
